<svg id="visual" viewBox="0 0 900 600" width="900" height="600" xmlns="http://www.w3.org/2000/svg" xmlns:xlink="http://www.w3.org/1999/xlink" version="1.1"><rect x="0" y="0" width="900" height="600" fill="#ff8fab"></rect><path d="M0 306L12.5 301.3C25 296.7 50 287.3 75 268.3C100 249.3 125 220.7 150 215.2C175 209.7 200 227.3 225 223.7C250 220 275 195 300 180C325 165 350 160 375 171.8C400 183.7 425 212.3 450 231.8C475 251.3 500 261.7 525 252.5C550 243.3 575 214.7 600 202.5C625 190.3 650 194.7 675 203.7C700 212.7 725 226.3 750 223.8C775 221.3 800 202.7 825 211.7C850 220.7 875 257.3 887.5 275.7L900 294L900 0L887.5 0C875 0 850 0 825 0C800 0 775 0 750 0C725 0 700 0 675 0C650 0 625 0 600 0C575 0 550 0 525 0C500 0 475 0 450 0C425 0 400 0 375 0C350 0 325 0 300 0C275 0 250 0 225 0C200 0 175 0 150 0C125 0 100 0 75 0C50 0 25 0 12.5 0L0 0Z" fill="#ff8fab" stroke-linecap="round" stroke-linejoin="miter"></path></svg>